<?xml version="1.0" encoding="utf-8"?>
<!-- Generator: Adobe Illustrator 27.7.0, SVG Export Plug-In . SVG Version: 6.00 Build 0)  -->
<svg version="1.1" id="Layer_1" xmlns="http://www.w3.org/2000/svg" xmlns:xlink="http://www.w3.org/1999/xlink" x="0px" y="0px"
	 viewBox="0 0 1600 1020" style="enable-background:new 0 0 1600 1020;" xml:space="preserve">
<style type="text/css">
	.st0{fill:#2F2C2F;}
	.st1{font-family:'QuirelTypeface';}
	.st2{font-size:40px;}
	.st3{font-size:78px;}
	.st4{letter-spacing:3;}
	.st5{fill:#8BCA89;}
	.st6{fill:#F06B6C;}
	.st7{fill:#F6F7F8;}
</style>
<g id="JokerGroupMid">
	<g id="TopLableGroup_00000015337754930259345600000012050664863026421687_">
		<text transform="matrix(1 0 0 1 573.4558 236.2432)" class="st0 st1 st2">iskoristili ste jokera</text>
	</g>
	
		<text id="MENTALNO_RAZGIBAVANJE_00000007419009682301967860000010096575883037386892_" transform="matrix(1 0 0 1 589.9589 785.4653)" class="st0 st1 st3 st4">završeno!</text>
	<g id="MediumIcons_00000079479555419656560270000017765796263928988835_">
		<g id="JockerGroup_00000173120853390723094410000013341835001392349359_">
			<path id="Stroke_00000137096810520653092250000012156965059355591065_" class="st0" d="M890.16,300.7
				c-0.71-0.76-1.45-1.51-2.22-2.22c-0.71-0.76-1.45-1.5-2.22-2.21c-0.71-0.77-1.45-1.51-2.22-2.22c-0.71-0.77-1.45-1.51-2.22-2.22
				c-0.71-0.77-1.45-1.51-2.22-2.22c-0.71-0.77-1.45-1.5-2.22-2.22c-0.71-0.77-1.45-1.51-2.22-2.22c-0.71-0.76-1.45-1.5-2.22-2.22
				c-7.24-7.83-17.56-12.77-29.03-12.77H650.41c-21.83,0-39.59,17.76-39.59,39.59v275.69c0,11.48,4.94,21.8,12.77,29.04
				c0.71,0.76,1.45,1.5,2.22,2.22c0.71,0.77,1.45,1.51,2.22,2.22c0.71,0.77,1.45,1.51,2.22,2.22c0.71,0.77,1.45,1.51,2.22,2.22
				c0.71,0.76,1.45,1.51,2.22,2.21c0.71,0.77,1.45,1.51,2.22,2.22c0.71,0.77,1.45,1.51,2.22,2.22c0.71,0.77,1.45,1.51,2.22,2.22
				c7.24,7.83,17.56,12.77,29.04,12.77h192.97c21.83,0,39.59-17.76,39.59-39.59V329.73C902.93,318.25,897.99,307.93,890.16,300.7"/>
			<path id="Available_00000006674528566078316620000013138852360393970344_" class="st5" d="M834.75,608.09H659.05
				c-17.19,0-31.26-14.07-31.26-31.26V318.42c0-17.19,14.07-31.26,31.26-31.26h175.71c17.19,0,31.26,14.07,31.26,31.26v258.41
				C866.01,594.02,851.94,608.09,834.75,608.09"/>
			<path id="Used_00000108299535661901928340000001825562435961029266_" class="st6" d="M834.75,608.09h-175.7
				c-17.19,0-31.26-14.07-31.26-31.26V318.41c0-17.19,14.07-31.26,31.26-31.26h175.7c17.19,0,31.26,14.07,31.26,31.26v258.42
				C866.01,594.02,851.94,608.09,834.75,608.09"/>
			<g id="JockerCard_00000163033463405048000200000004643198172037254556_">
				<path class="st7" d="M802.61,573.53H685.68c-13.17,0-23.95-10.77-23.95-23.94V345.67c0-13.17,10.78-23.95,23.95-23.95h116.93
					c13.17,0,23.94,10.77,23.94,23.95v203.92C826.55,562.76,815.78,573.53,802.61,573.53"/>
				<path class="st0" d="M802.61,578.52H685.67c-15.95,0-28.93-12.98-28.93-28.93V345.67c0-15.95,12.98-28.93,28.93-28.93h116.94
					c15.95,0,28.93,12.98,28.93,28.93v203.93C831.54,565.54,818.56,578.52,802.61,578.52 M685.67,326.71
					c-10.45,0-18.96,8.5-18.96,18.96v203.93c0,10.45,8.5,18.95,18.96,18.95h116.94c10.45,0,18.95-8.5,18.95-18.95V345.67
					c0-10.45-8.5-18.96-18.95-18.96H685.67z"/>
				<path class="st0" d="M696.89,364.71c-0.32,0.52-0.63,1.1-1,1.63c-0.32,0.47-0.63,0.95-1.06,1.37c-0.95,1.16-2.26,2.31-3.58,2.94
					c-1.58,0.74-3.21,1.26-4.84,1.63c-0.53,0.1-1,0.21-1.52,0.26h-0.16c-3,0.26-6.63-0.89-8.1-3.68c-0.05-0.16-0.11-0.32-0.11-0.47
					c0-0.21,0.21-0.42,0.42-0.58c0.79-0.68,1.58-1.37,2.37-2.05c0.58-0.47,1.05-0.95,1.68-1.42c0.21-0.11,0.47-0.26,0.74-0.31
					c0.37,0,0.63,0.21,0.95,0.47c0.32,0.26,0.63,0.47,1.06,0.58c0.95,0.21,2.1-0.37,2.89-0.95c1.31-1,2-2.63,2.42-4.21
					c0.53-1.84,0.79-3.68,0.9-5.69c0.1-1.05,0.16-2,0.16-3.1c0-1.63,0.05-3.31,0.05-4.95c0-0.52,0-1.05-0.16-1.52
					c-0.16-0.47-0.52-0.9-1-1c-0.47-0.15-1.06,0-1.32-0.37c-0.1-0.21-0.16-0.42-0.16-0.63c-0.05-0.85-0.1-1.63,0.11-2.42
					c0.16-0.79,0.63-1.53,1.37-1.9c0.42-0.15,0.84-0.21,1.26-0.26c1.47-0.16,2.95-0.27,4.42-0.32c0.9,0,1.9,0.05,2.63,0.58
					c0.84,0.69,1.05,1.84,1.16,2.89c0.31,2.69,0.31,5.48,0.37,8.21c0,2.53,0.05,5.1-0.11,7.62c-0.16,2.58-0.63,5.16-1.79,7.42
					C696.94,364.55,696.89,364.66,696.89,364.71"/>
				<path class="st0" d="M806.44,547.16c-0.31,0.53-0.63,1.11-1,1.63c-0.31,0.47-0.63,0.95-1.05,1.37
					c-0.95,1.16-2.27,2.32-3.58,2.94c-1.58,0.74-3.21,1.26-4.84,1.63c-0.53,0.11-1,0.21-1.52,0.27h-0.16c-3,0.26-6.63-0.89-8.1-3.68
					c-0.05-0.16-0.1-0.32-0.1-0.47c0-0.21,0.21-0.42,0.42-0.58c0.79-0.68,1.58-1.37,2.37-2.05c0.58-0.47,1.06-0.95,1.69-1.42
					c0.21-0.1,0.47-0.26,0.73-0.31c0.37,0,0.63,0.21,0.95,0.47c0.32,0.26,0.63,0.47,1.06,0.58c0.95,0.21,2.1-0.37,2.89-0.95
					c1.32-1,2-2.63,2.42-4.21c0.52-1.84,0.79-3.68,0.9-5.69c0.1-1.05,0.16-1.99,0.16-3.1c0-1.63,0.05-3.32,0.05-4.95
					c0-0.52,0-1.05-0.16-1.53c-0.16-0.47-0.52-0.89-1-1c-0.47-0.16-1.05,0-1.32-0.37c-0.1-0.21-0.16-0.42-0.16-0.63
					c-0.05-0.84-0.1-1.63,0.11-2.42c0.16-0.79,0.63-1.53,1.37-1.9c0.42-0.16,0.84-0.21,1.26-0.26c1.48-0.16,2.95-0.27,4.42-0.32
					c0.9,0,1.9,0.05,2.63,0.58c0.84,0.68,1.05,1.84,1.16,2.89c0.31,2.68,0.31,5.47,0.37,8.21c0,2.53,0.05,5.1-0.11,7.63
					c-0.16,2.58-0.63,5.16-1.79,7.42C806.49,547,806.44,547.1,806.44,547.16"/>
				<polyline class="st7" points="708.17,432.28 711.54,449.48 776.31,447.68 778.14,429.69 				"/>
				<path class="st0" d="M711.54,452.47c-1.43,0-2.66-1.01-2.93-2.41l-3.38-17.19c-0.32-1.62,0.74-3.2,2.36-3.51
					c1.63-0.32,3.2,0.74,3.51,2.36l2.89,14.71l59.61-1.66l1.56-15.37c0.17-1.65,1.66-2.82,3.28-2.68c1.64,0.17,2.84,1.63,2.67,3.28
					l-1.83,17.99c-0.15,1.5-1.39,2.65-2.89,2.69l-64.78,1.8H711.54z"/>
				<path class="st7" d="M708.17,432.28c6.81-22.82,12.38-44.8,16.19-65.57l36.99,1.8c4.05,21.49,9.62,41.91,16.79,61.18
					L708.17,432.28z"/>
				<path class="st0" d="M708.16,435.28c-0.92,0-1.8-0.43-2.37-1.16c-0.59-0.76-0.78-1.76-0.5-2.69
					c7.25-24.29,12.52-45.63,16.12-65.26c0.27-1.47,1.5-2.52,3.09-2.45l36.98,1.8c1.38,0.07,2.54,1.07,2.79,2.43
					c4.03,21.42,9.64,41.83,16.66,60.69c0.34,0.9,0.22,1.9-0.32,2.7c-0.54,0.8-1.42,1.29-2.38,1.33l-69.98,2.6
					C708.24,435.28,708.2,435.28,708.16,435.28 M726.82,369.82c-3.42,18.04-8.21,37.5-14.61,59.32l61.7-2.29
					c-6.23-17.39-11.3-36.02-15.07-55.47L726.82,369.82z"/>
				<path class="st0" d="M742.15,395.39c-0.32,0-0.65-0.08-0.95-0.24l-16.5-9c-0.97-0.53-1.32-1.74-0.8-2.71
					c0.53-0.97,1.75-1.32,2.71-0.79l16.49,9c0.97,0.53,1.33,1.74,0.8,2.71C743.54,395.02,742.86,395.39,742.15,395.39"/>
				<path class="st0" d="M730.26,397.49c-0.42,0-0.84-0.13-1.2-0.4c-0.88-0.66-1.05-1.91-0.39-2.79l6.95-9.24
					c0.66-0.88,1.91-1.06,2.79-0.39s1.06,1.91,0.39,2.79l-6.95,9.24C731.46,397.22,730.86,397.49,730.26,397.49"/>
				<path class="st0" d="M758.02,398.89c-0.81,0-1.57-0.5-1.87-1.31l-3.61-9.83c-0.38-1.03,0.15-2.18,1.18-2.56
					c1.04-0.38,2.18,0.15,2.56,1.19l3.6,9.83c0.38,1.04-0.15,2.18-1.18,2.56C758.48,398.85,758.25,398.89,758.02,398.89"/>
				<path class="st0" d="M747.45,394.99c-0.83,0-1.62-0.52-1.89-1.36c-0.35-1.04,0.22-2.17,1.26-2.52l17.84-5.94
					c1.04-0.34,2.18,0.22,2.52,1.27c0.35,1.04-0.22,2.17-1.26,2.52l-17.84,5.94C747.87,394.96,747.66,394.99,747.45,394.99"/>
				<path class="st0" d="M725.5,411.22l10.29-6.63l1.13-0.73l1.18,0.73l15.09,9.22l-1.5,0l11.6-6.3c0.76-0.41,1.71-0.13,2.12,0.63
					c0.41,0.76,0.13,1.71-0.63,2.12l-11.59,6.3l-0.71,0.38l-0.79-0.39l-15.89-7.77l2.31,0l-11.1,5.17
					c-0.79,0.37-1.72,0.03-2.08-0.76C724.59,412.48,724.85,411.64,725.5,411.22"/>
				<path class="st0" d="M739.55,373.8c-0.09,0-0.19-0.01-0.29-0.02c-0.73-0.09-1.34-0.53-1.67-1.14c-0.36,0.19-0.79,0.29-1.21,0.25
					c-0.69-0.06-1.29-0.42-1.66-0.96c-0.18,0.05-0.38,0.06-0.54,0.06c-1.16-0.02-2.12-0.92-2.21-2.08l-1.4-18.45
					c-0.09-1.24,0.83-2.32,2.07-2.41c0.53-0.04,1.05,0.11,1.46,0.4l0.23-2.14c0.13-1.19,1.2-2.06,2.36-2.01
					c0.63,0.04,1.19,0.32,1.58,0.77l0.28-1.73c0.19-1.17,1.26-1.98,2.45-1.88c1.18,0.12,2.07,1.15,2.02,2.33l-0.02,0.35
					c0.29-1.04,1.26-1.74,2.38-1.64c1.08,0.1,1.92,0.95,2.02,2.02c0.44-0.44,1.09-0.74,1.71-0.68c1.17,0.05,2.11,0.98,2.16,2.15
					l0.21,4.72l0.28-1.45c0.24-1.22,1.43-2.02,2.64-1.78c1.22,0.24,2.02,1.42,1.78,2.64l-3.9,19.94c-0.22,1.12-1.25,1.87-2.37,1.81
					c-0.77-0.06-1.43-0.5-1.79-1.14l-0.01,0.08c-0.15,1.17-1.18,2.01-2.34,1.95c-1.17-0.05-2.1-1-2.13-2.18l-0.2-7.21l-1.65,7.63
					C741.52,373.08,740.6,373.8,739.55,373.8"/>
				<path class="st0" d="M742.73,373.8c-0.07,0-0.14-0.01-0.21-0.01c-1.24-0.12-2.14-1.21-2.03-2.45l2.43-25.79
					c0.12-1.24,1.21-2.11,2.45-2.03c1.24,0.12,2.15,1.21,2.03,2.45l-2.43,25.79C744.85,372.93,743.87,373.8,742.73,373.8"/>
				<polyline class="st7" points="780.14,465 776.77,447.81 711.99,449.6 710.16,467.6 				"/>
				<path class="st0" d="M710.17,470.59c-0.1,0-0.2-0.01-0.31-0.01c-1.64-0.17-2.84-1.64-2.68-3.28l1.83-18
					c0.15-1.5,1.39-2.65,2.89-2.69l64.78-1.8c1.43-0.09,2.74,0.98,3.02,2.41l3.37,17.2c0.32,1.62-0.74,3.2-2.36,3.51
					c-1.62,0.33-3.2-0.73-3.52-2.36l-2.88-14.71l-59.61,1.66l-1.56,15.37C712.99,469.44,711.69,470.59,710.17,470.59"/>
				<path class="st7" d="M780.14,465c-6.81,22.82-12.38,44.8-16.19,65.57l-36.99-1.8c-4.05-21.49-9.62-41.91-16.79-61.18L780.14,465
					z"/>
				<path class="st0" d="M763.95,533.57c-0.05,0-0.1,0-0.15-0.01l-36.98-1.8c-1.38-0.07-2.54-1.08-2.79-2.44
					c-4.03-21.41-9.64-41.83-16.66-60.69c-0.34-0.9-0.22-1.91,0.32-2.71c0.53-0.8,1.42-1.29,2.37-1.32l69.98-2.6
					c0.97-0.08,1.88,0.4,2.47,1.16c0.59,0.77,0.78,1.77,0.5,2.69c-7.24,24.28-12.52,45.63-16.12,65.26
					C766.63,532.54,765.38,533.57,763.95,533.57 M729.46,525.9l32.03,1.56c3.42-18.04,8.21-37.51,14.61-59.32l-61.7,2.29
					C720.62,487.83,725.68,506.46,729.46,525.9"/>
				<path class="st0" d="M762.64,514.88c-0.32,0-0.65-0.08-0.95-0.25l-16.5-8.99c-0.97-0.53-1.32-1.74-0.8-2.71
					c0.53-0.97,1.74-1.32,2.71-0.79l16.5,9c0.97,0.52,1.32,1.74,0.8,2.7C764.03,514.5,763.35,514.88,762.64,514.88"/>
				<path class="st0" d="M751.1,513.02c-0.42,0-0.84-0.13-1.2-0.4c-0.88-0.66-1.06-1.91-0.39-2.79l6.95-9.24
					c0.66-0.87,1.91-1.06,2.79-0.39c0.88,0.66,1.06,1.91,0.4,2.79l-6.95,9.24C752.3,512.74,751.7,513.02,751.1,513.02"/>
				<path class="st0" d="M733.89,512.21c-0.81,0-1.58-0.5-1.87-1.31l-3.61-9.83c-0.38-1.04,0.15-2.18,1.19-2.56
					c1.04-0.38,2.18,0.15,2.56,1.19l3.61,9.83c0.38,1.03-0.15,2.18-1.18,2.56C734.35,512.18,734.12,512.21,733.89,512.21"/>
				<path class="st0" d="M723.02,512.21c-0.83,0-1.62-0.53-1.9-1.36c-0.35-1.04,0.22-2.18,1.26-2.52l17.84-5.94
					c1.04-0.34,2.18,0.22,2.52,1.27c0.35,1.04-0.22,2.17-1.26,2.52l-17.84,5.94C723.44,512.18,723.23,512.21,723.02,512.21"/>
				<path class="st0" d="M762.8,486.06l-10.29,6.63l-1.13,0.73l-1.18-0.73l-15.09-9.22l1.5,0l-11.6,6.3
					c-0.76,0.41-1.71,0.13-2.12-0.63c-0.41-0.76-0.13-1.71,0.63-2.12l11.6-6.3l0.71-0.39l0.79,0.39l15.89,7.77l-2.31,0l11.1-5.17
					c0.79-0.37,1.72-0.03,2.08,0.76C763.71,484.8,763.45,485.65,762.8,486.06"/>
				<path class="st0" d="M747.55,554.81c-0.08,0-0.15-0.01-0.23-0.01c-1.18-0.12-2.07-1.15-2.01-2.33l0.01-0.36
					c-0.29,1.05-1.28,1.72-2.38,1.65c-1.08-0.1-1.92-0.95-2.03-2.02c-0.43,0.44-1.07,0.71-1.7,0.68c-1.17-0.05-2.1-0.98-2.15-2.15
					l-0.21-4.72l-0.28,1.45c-0.24,1.22-1.42,2.02-2.64,1.78c-1.22-0.24-2.01-1.42-1.77-2.64l3.9-19.95
					c0.22-1.12,1.25-1.88,2.37-1.81c0.77,0.06,1.43,0.5,1.79,1.14l0.01-0.08c0.15-1.16,1.16-2.01,2.34-1.96
					c1.17,0.06,2.1,1.01,2.13,2.18l0.2,7.22l1.66-7.64c0.25-1.14,1.3-1.91,2.49-1.75c0.73,0.09,1.34,0.53,1.67,1.13
					c0.36-0.19,0.78-0.3,1.21-0.25c0.69,0.05,1.29,0.41,1.66,0.95c0.17-0.05,0.34-0.06,0.54-0.06c1.16,0.02,2.12,0.92,2.21,2.08
					l1.4,18.44c0.09,1.24-0.83,2.32-2.07,2.41c-0.54,0.04-1.04-0.11-1.45-0.4l-0.23,2.14c-0.12,1.19-1.17,2.06-2.36,2.01
					c-0.63-0.03-1.19-0.33-1.58-0.77l-0.28,1.73C749.59,554.03,748.65,554.81,747.55,554.81"/>
				<path class="st0" d="M743.15,553.76c-0.07,0-0.14,0-0.21-0.01c-1.24-0.12-2.15-1.21-2.03-2.45l2.43-25.79
					c0.11-1.24,1.18-2.14,2.45-2.03c1.24,0.12,2.15,1.21,2.03,2.45l-2.43,25.79C745.28,552.89,744.3,553.76,743.15,553.76"/>
			</g>
		</g>
	</g>
</g>
</svg>
